<svg xmlns="http://www.w3.org/2000/svg" viewBox="0 0 496 496"><defs><style>.a{fill:#3f12c8;}</style></defs><title>25th anivewsary</title><path class="a" d="M88,187.89l75.63-83.18a47.52,47.52,0,0,0,12.37-32V71.6A47.6,47.6,0,0,0,94.74,38L88,44.69,81.26,38A47.6,47.6,0,0,0,0,71.6v1.09a47.48,47.48,0,0,0,12.38,32ZM16,71.6A31.6,31.6,0,0,1,70,49.26L88,67.31l18.06-18.05A31.59,31.59,0,0,1,160,71.6v1.09A31.58,31.58,0,0,1,151.79,94L88,164.11,24.21,94A31.58,31.58,0,0,1,16,72.69Z"/><path class="a" d="M448.4,328A47.27,47.27,0,0,0,414.74,342L408,348.69,401.27,342a47.18,47.18,0,0,0-9.27-7V288h16a16,16,0,0,0,16-16V240a16,16,0,0,0-16-16H366.89A55.81,55.81,0,0,0,376,193.47V192a56,56,0,0,0-100.8-33.59,185.52,185.52,0,0,0-16.66,26.8A47.56,47.56,0,0,0,248,184a48.23,48.23,0,0,0-10.54,1.2,187.51,187.51,0,0,0-16.66-26.8A56,56,0,0,0,120,192v1.47A55.81,55.81,0,0,0,129.11,224H88a16,16,0,0,0-16,16v32a16,16,0,0,0,16,16h16V496H392V474.3l16,17.59,75.63-83.17a47.56,47.56,0,0,0,12.37-32V375.6A47.65,47.65,0,0,0,448.4,328ZM408,272H315.73a137.83,137.83,0,0,0-18.28-32H408ZM188.1,224l-18.76-26.11a7.92,7.92,0,0,1-1.34-4.42V192a8,8,0,0,1,1.6-4.8c3-4,9.78-4,12.81,0a136.35,136.35,0,0,1,12.94,20.94l6.09,12.38c-.28,1.14-.52,2.29-.72,3.46H188.1Zm47.36,16a237,237,0,0,0-19.13,81.27L200,310.38l-14.15,9.44,1.1-10A121.39,121.39,0,0,1,219.5,240h16ZM248,251.7c2.68,6.65,5.08,13.41,7.1,20.3H240.9C242.92,265.11,245.32,258.35,248,251.7ZM232,351V333.66A219.22,219.22,0,0,1,236.93,288h22.15A219.29,219.29,0,0,1,264,333.66V351l16-10.67V480H216V340.28Zm47.66-29.68A236.76,236.76,0,0,0,260.53,240h16A121.35,121.35,0,0,1,309,309.86l1.1,10L296,310.38Zm14.9-100.73,6.07-12.34a137.89,137.89,0,0,1,13-21c3-4,9.79-4,12.8,0A8.07,8.07,0,0,1,328,192v1.47a7.85,7.85,0,0,1-1.18,4.2L307.9,224H295.28C295.08,222.83,294.84,221.67,294.56,220.54ZM288,168a40,40,0,0,1,72,24v1.47a40,40,0,0,1-6.72,22.19L347.72,224H327.59L340,206.79a23.87,23.87,0,0,0,4-13.32V192a24,24,0,0,0-43.2-14.39,152.18,152.18,0,0,0-14.5,23.49l-.62,1.25a48.3,48.3,0,0,0-12.25-11A168.61,168.61,0,0,1,288,168Zm-9.14,56H217.14a31.84,31.84,0,0,1,61.72,0Zm-136.14-8.34A40,40,0,0,1,136,193.47V192a40,40,0,0,1,72-24,171.17,171.17,0,0,1,14.59,23.35,48.2,48.2,0,0,0-12.26,11l-.64-1.29a152.8,152.8,0,0,0-14.49-23.44A24,24,0,0,0,152,192v1.47A24,24,0,0,0,156.19,207l12.22,17H148.28ZM88,240H198.55a137.83,137.83,0,0,0-18.28,32H88Zm32,48h54.93a137.73,137.73,0,0,0-3.88,20.1l-4.9,44.08L200,329.62V480H120ZM296,480V329.62l33.85,22.56L325,308.09a137.73,137.73,0,0,0-3.88-20.1H376V480H296ZM480,376.69A31.58,31.58,0,0,1,471.79,398L408,468.11l-16-17.6v-95.2l16,16,18.06-18.05A31.59,31.59,0,0,1,480,375.6Z"/><path class="a" d="M328,99.31l47-47a30.33,30.33,0,0,0,9-21.65A30.63,30.63,0,0,0,331.71,9L328,12.69,324.28,9A30.62,30.62,0,0,0,272,30.63a30.35,30.35,0,0,0,9,21.65ZM302.63,16A14.56,14.56,0,0,1,313,20.28l15,15,15-15a14.64,14.64,0,0,1,25,10.35A14.76,14.76,0,0,1,363.72,41L328,76.69,292.28,41a14.63,14.63,0,0,1,10.35-25Z"/><path class="a" d="M71,408a24.76,24.76,0,0,0-17.65,7.31L48,420.69l-5.37-5.38A25,25,0,0,0,0,433a25.15,25.15,0,0,0,7.31,17.66L48,491.31l40.69-40.68A25,25,0,0,0,71,408Zm6.35,31.31L48,468.69,18.63,439.31A9,9,0,0,1,25,424a8.87,8.87,0,0,1,6.34,2.63L48,443.31l16.69-16.68A8.87,8.87,0,0,1,71,424a9,9,0,0,1,6.35,15.31Z"/><path class="a" d="M448,243.31l40.69-40.68A25,25,0,0,0,471,160a24.76,24.76,0,0,0-17.65,7.31L448,172.69l-5.37-5.38A25,25,0,0,0,400,185a25.15,25.15,0,0,0,7.31,17.66ZM425,176a8.87,8.87,0,0,1,6.34,2.63L448,195.31l16.69-16.68A8.87,8.87,0,0,1,471,176a9,9,0,0,1,6.35,15.31L448,220.69l-29.37-29.38A9,9,0,0,1,425,176Z"/></svg>