<?xml version="1.0" encoding="utf-8"?>
<!-- Generator: Adobe Illustrator 22.0.1, SVG Export Plug-In . SVG Version: 6.00 Build 0)  -->
<svg version="1.1" id="Layer_1" xmlns="http://www.w3.org/2000/svg" xmlns:xlink="http://www.w3.org/1999/xlink" x="0px" y="0px"
	 viewBox="0 0 512 512" style="enable-background:new 0 0 512 512;" xml:space="preserve">
<style type="text/css">
	.st0{fill:#3F12C8;}
</style>
<g>
	<path class="st0" d="M331.6,269.8H87c-4.2,0-7.6,3.4-7.6,7.6s3.4,7.6,7.6,7.6h244.7c4.2,0,7.6-3.4,7.6-7.6
		C339.3,273.3,335.9,269.8,331.6,269.8z"/>
	<path class="st0" d="M178.7,308H87c-4.2,0-7.6,3.4-7.6,7.6s3.4,7.6,7.6,7.6h91.8c4.2,0,7.6-3.4,7.6-7.6
		C186.4,311.5,182.9,308,178.7,308z"/>
	<path class="st0" d="M87,78.8c-4.2,0-7.6,3.4-7.6,7.6c0,4.2,3.4,7.6,7.6,7.6h220V78.8H87z"/>
	<path class="st0" d="M438.3,78.8l-88.8,0c0,0,0,0,0,0V94c0,0,0,0,0,0h89.2c4.3,0,7.7-3.5,7.6-7.8C446.2,82,442.5,78.8,438.3,78.8z"
		/>
	<path class="st0" d="M331.6,231.6H201v15.2h130.7c4.2,0,7.6-3.4,7.6-7.6C339.3,235,335.9,231.6,331.6,231.6z"/>
	<path class="st0" d="M87,231.6c-4.2,0-7.6,3.4-7.6,7.6s3.4,7.6,7.6,7.6h89.5v-15.2H87z"/>
	<path class="st0" d="M331.6,155.1H87c-4.2,0-7.6,3.4-7.6,7.6s3.4,7.6,7.6,7.6h244.7c4.2,0,7.6-3.4,7.6-7.6
		C339.3,158.6,335.9,155.1,331.6,155.1z"/>
	<rect x="271" y="116.9" class="st0" width="87.5" height="15.2"/>
	<path class="st0" d="M87,116.9c-4.2,0-7.6,3.4-7.6,7.6s3.4,7.6,7.6,7.6h152.5v-15.2H87z"/>
	<path class="st0" d="M438.7,116.9H392v15.2h46.7c4.2,0,7.6-3.4,7.6-7.6C446.3,120.3,442.9,116.9,438.7,116.9z"/>
	<path class="st0" d="M305,78.8h-46.7V94H305c4.2,0,7.6-3.4,7.6-7.6C312.6,82.2,309.2,78.8,305,78.8z"/>
	<path class="st0" d="M239.9,116.9h-46.7v15.2h46.7c4.2,0,7.6-3.4,7.6-7.6C247.5,120.3,244.1,116.9,239.9,116.9z"/>
	<path class="st0" d="M208.7,193.4H162v15.2h46.7c4.2,0,7.6-3.4,7.6-7.6C216.3,196.8,212.9,193.4,208.7,193.4z"/>
	<path class="st0" d="M176,231.6h-46.7v15.2H176c4.2,0,7.6-3.4,7.6-7.6C183.6,235,180.2,231.6,176,231.6z"/>
	<path class="st0" d="M357.4,116.9h-46.7v15.2h46.7c4.2,0,7.6-3.4,7.6-7.6C365,120.3,361.6,116.9,357.4,116.9z"/>
	<path class="st0" d="M87,193.4c-4.2,0-7.6,3.4-7.6,7.6s3.4,7.6,7.6,7.6h122.4v-15.2H87z"/>
	<path class="st0" d="M331.6,193.4h-92.1v15.2h92.2c4.2,0,7.6-3.4,7.6-7.6C339.3,196.8,335.9,193.4,331.6,193.4z"/>
	<path class="st0" d="M456,24H56c-13.2,0-24,10.8-24,24v304c0,13.2,10.8,24,24,24h16c2.1,0,4.2,0.8,5.7,2.3s2.3,3.5,2.3,5.7v79.4
		c0,3.6,2.2,6.8,5.6,8.1c3.4,1.3,7.1,0.4,9.5-2.2l83-90.6c1.5-1.7,3.7-2.6,5.9-2.6h272c13.2,0,24-10.8,24-24V48
		C480,34.8,469.2,24,456,24z M456,335c0,11.5-9.6,21-21.4,21H191.8c-2-0.2-5.1-0.2-9.7,0h-9.4c-1.4,0-2.7,0.6-3.6,1.6L104,429.9
		c-0.9,1-0.6,0.8-4.6,5c-0.3-0.8-0.4-1.6-0.4-2.5v-69.5c0-1.9-0.7-3.7-2.1-5c-1.3-1.3-3.2-2-5.1-2H77.5c-21.4,2.1-21.4-9.4-21.4-21
		V69c0-11.5,9.6-21,21.4-21h357.1c11.8,0,21.4,9.4,21.4,21V335z"/>
	<path class="st0" d="M444.6,200.9l-81.1,0.1l-8,11h22.3c2.3,0.1,18.4,1.1,24.2,12.1h-38.7l-8,11H404c0,0.2,0,0.4,0,0.6
		c0,0-0.2,24.1-44.1,19.9v5.2v5.6l47.3,51.5h18v-2.3l-45.4-51.1v-0.7c0,0,35.7,0.5,41.6-28.6c0,0,0-0.1,0-0.2h15l8-11h-23.6
		c-0.9-4-2.7-8.5-6.3-12.1h22.1L444.6,200.9z"/>
	<path class="st0" d="M349.6,78.8h46.7V94h-46.7c-4.2,0-7.6-3.4-7.6-7.6C342,82.2,345.4,78.8,349.6,78.8z"/>
	<path class="st0" d="M241,193.3h46.7v15.2H241c-4.2,0-7.6-3.4-7.6-7.6C233.4,196.7,236.8,193.3,241,193.3z"/>
	<path class="st0" d="M201.3,231.6H248v15.2h-46.7c-4.2,0-7.6-3.4-7.6-7.6C193.7,235,197.1,231.6,201.3,231.6z"/>
	<path class="st0" d="M272.5,116.9h46.7v15.2h-46.7c-4.2,0-7.6-3.4-7.6-7.6C264.9,120.3,268.3,116.9,272.5,116.9z"/>
</g>
</svg>
