<?xml version="1.0" encoding="utf-8"?>
<!-- Generator: Adobe Illustrator 22.0.1, SVG Export Plug-In . SVG Version: 6.00 Build 0)  -->
<svg version="1.1" id="Layer_1" xmlns="http://www.w3.org/2000/svg" xmlns:xlink="http://www.w3.org/1999/xlink" x="0px" y="0px"
	 viewBox="0 0 512 512" style="enable-background:new 0 0 512 512;" xml:space="preserve">
<style type="text/css">
	.st0{fill:#1111a5;}
</style>
<g id="surface1">
	<g>
		<path class="st0" d="M213.8,253.4h33.8v16.9h-33.8L213.8,253.4L213.8,253.4z"/>
	</g>
	<g>
		<path class="st0" d="M502.3,228.2l-57.4-8.2c-10.5-6.4-21.3-12.2-32.5-17.2c-37-16.8-77.2-25.4-117.7-25.4h-10
			c-47.9,0-95.1,12.1-137.2,35l-29,15.8c-33.9,0.4-67.1,9.3-96.6,26.2c-12,6.9-19.4,19.6-19.4,33.4V338c0,4.7,3.8,8.5,8.5,8.5h28.4
			c9.3,26.4,38.1,40.2,64.4,31c14.5-5.1,25.9-16.5,31-31h225.9c9.3,26.4,38.1,40.2,64.4,31c14.5-5.1,25.9-16.5,31-31h3
			c1.1,0,2.1-0.2,3.2-0.6l27.3-11c12.3-4.9,20.2-16.7,20.2-29.8v-68.4C509.6,232.3,506.5,228.8,502.3,228.2z M120.1,336.3
			c-3.7,18.3-21.6,30.1-39.9,26.4s-30.1-21.6-26.4-39.9c3.7-18.3,21.6-30.1,39.9-26.4c15.7,3.2,27.1,17.1,27.1,33.2
			C120.8,331.8,120.5,334,120.1,336.3z M272.9,329.5H137.6c0-28-22.7-50.7-50.7-50.7s-50.7,22.7-50.7,50.7H19.4v-41.7
			c0-7.8,4.1-14.9,10.8-18.7C57.8,253.3,89,245,120.8,245h152.1V329.5z M272.9,228.1H154l1.6-0.9c36.2-19.7,76.3-30.8,117.4-32.5
			V228.1z M289.9,194.3h4.8c34,0,67.8,6.4,99.5,19.1l-14.7,14.7h-89.5V194.3z M441.3,336.3c-3.7,18.3-21.6,30.1-39.9,26.4
			c-18.3-3.7-30.1-21.6-26.4-39.9c3.7-18.3,21.6-30.1,39.9-26.4c15.7,3.2,27.1,17.1,27.1,33.2C442,331.8,441.7,334,441.3,336.3z
			 M492.7,253.4h-25.4v16.9h25.4V305c0,6.3-3.8,11.8-9.5,14.1l-24.3,9.7c0-0.8-0.1-1.6-0.2-2.3c-0.1-0.8-0.1-1.7-0.2-2.6
			c-0.1-0.9-0.3-1.7-0.4-2.6c-0.2-0.9-0.3-1.7-0.4-2.5c-0.2-0.8-0.4-1.6-0.6-2.5c-0.2-0.8-0.4-1.6-0.6-2.4c-0.3-0.8-0.5-1.5-0.9-2.3
			c-0.3-0.8-0.5-1.6-0.9-2.3c-0.3-0.8-0.7-1.4-1.1-2.2c-0.4-0.7-0.7-1.5-1.1-2.2c-0.4-0.7-0.9-1.3-1.2-2s-0.9-1.4-1.3-2.1
			c-0.4-0.7-1-1.2-1.4-1.9c-0.4-0.6-1-1.3-1.5-2c-0.5-0.6-1.1-1.1-1.6-1.7c-0.5-0.5-1.1-1.2-1.7-1.9c-0.6-0.6-1.1-1.1-1.8-1.6
			c-0.6-0.5-1.2-1.1-1.9-1.7c-0.6-0.5-1.3-1-1.9-1.4c-0.6-0.4-1.3-1-1.9-1.4c-0.7-0.4-1.4-0.9-2.2-1.3c-0.7-0.4-1.3-0.9-2-1.2
			c-0.7-0.4-1.5-0.7-2.3-1.1c-0.8-0.4-1.4-0.7-2.1-1c-0.7-0.3-1.7-0.6-2.6-1c-0.9-0.3-1.4-0.5-2.1-0.8c-1-0.3-1.9-0.5-2.9-0.8
			c-0.6-0.2-1.2-0.4-1.9-0.5c-1.1-0.2-2.1-0.4-3.2-0.4c-0.6-0.1-1.2-0.2-1.9-0.3c-1.7-0.2-3.4-0.3-5.1-0.3
			c-28,0-50.7,22.8-50.7,50.7h-67.6v-84.5h93c2.2,0,4.4-0.9,6-2.5l22-22c9.2,4.4,18.2,9.3,26.8,14.6c1,0.6,2.1,1.1,3.3,1.2l51.9,7.4
			L492.7,253.4L492.7,253.4z"/>
	</g>
</g>
</svg>
