<svg xmlns="http://www.w3.org/2000/svg" viewBox="0 0 512 508.46"><defs><style>.a{fill:#3434c1;}</style></defs><title>foreign vaction</title><path class="a" d="M512,362.27l-240.7.17V211.76h30.19v15.05H331.6V211.76h29.94v15.05h30.1V211.76h29.84v15.05h30.11V196.7c0-44.7-20.7-86.57-58.28-117.88-33.15-27.62-76-44-122-47V0H241.2V31.77c-46.14,2.91-89.14,19.36-122.37,47.05C81.25,110.13,60.55,152,60.55,196.7v30.11H90.66V211.76h30.11v15.05h30.11V211.76h29.94v15.05h30.1V211.76H241.2v150.7l-69.18.05c-43.11-41.47-77.57-60.1-156.9-60.43L0,302V452.94H39.12L4.77,487.11,26,508.46l55.82-55.52H241.2v54.11h30.1V452.94H430.68l55.82,55.52,21.23-21.35-34.35-34.17H512V362.27ZM420.46,181.65H390.71c-3.54-30-17.1-63.83-37.15-91.53-1.15-1.6-2.33-3.15-3.51-4.69C388.42,107.17,415.05,141.83,420.46,181.65Zm-60.11,0H331A252.08,252.08,0,0,0,298.7,76.51C330.78,99.61,354.86,144.89,360.35,181.65ZM271.3,89.55a218.5,218.5,0,0,1,29.56,92.1H271.3Zm-149.61,92.1h-30c5.43-40,32.27-74.78,70.9-96.5-1.26,1.62-2.51,3.27-3.73,5C138.79,117.82,125.23,151.63,121.69,181.65Zm59.69,0H152.06c5.49-36.76,29.57-82,61.65-105.14A251.93,251.93,0,0,0,181.38,181.65Zm59.82,0H211.55A218.67,218.67,0,0,1,241.2,89.39ZM30.11,332.5c44.07,1.69,70,10.45,96.05,30l-96,.07Zm451.78,90.33H30.11V392.72l451.78-.32Z"/><polygon class="a" points="512 362.27 512 362.27 512 362.27 512 362.27"/></svg>