<?xml version="1.0" encoding="utf-8"?>
<!-- Generator: Adobe Illustrator 22.0.1, SVG Export Plug-In . SVG Version: 6.00 Build 0)  -->
<svg version="1.1" id="Layer_1" xmlns="http://www.w3.org/2000/svg" xmlns:xlink="http://www.w3.org/1999/xlink" x="0px" y="0px"
	 viewBox="0 0 512 512" style="enable-background:new 0 0 512 512;" xml:space="preserve">
<style type="text/css">
	.st0{fill:#3F12C8;}
	.st1{fill:none;}
</style>
<g>
	<rect x="184" y="168" class="st0" width="48" height="16"/>
	<polygon class="st0" points="103.8,152 88,152 88,168 72,168 72,184 88,184 88,200 103.8,200 103.8,184 120,184 120,168 103.8,168 
			"/>
	<rect x="184" y="288" class="st0" width="48" height="16"/>
	<rect x="200" y="264" class="st0" width="16" height="16"/>
	<rect x="200" y="312" class="st0" width="16" height="16"/>
	<polygon class="st0" points="105.1,267.6 96,281.3 87.1,267.5 73.6,276.3 86.4,296 73.4,315.6 86.8,324.5 95.9,310.7 104.9,324.6 
		118.4,315.8 105.6,296 118.5,276.4 	"/>
</g>
<g>
	<path class="st1" d="M64,112h176c8.8,0,16-7.2,16-16V64c0-8.8-7.2-16-16-16H64c-8.8,0-16,7.2-16,16v32C48,104.8,55.2,112,64,112z"
		/>
	<path class="st1" d="M136,240H56c-4.4,0-8,3.6-8,8v96c0,4.4,3.6,8,8,8h80c4.4,0,8-3.6,8-8v-96C144,243.6,140.4,240,136,240z"/>
	<path class="st1" d="M248,128h-80c-4.4,0-8,3.6-8,8v80c0,4.4,3.6,8,8,8h80c4.4,0,8-3.6,8-8v-80C256,131.6,252.4,128,248,128z"/>
	<path class="st1" d="M136,128H56c-4.4,0-8,3.6-8,8v80c0,4.4,3.6,8,8,8h80c4.4,0,8-3.6,8-8v-80C144,131.6,140.4,128,136,128z"/>
	<path class="st1" d="M256,344v-96c0-4.4-3.6-8-8-8h-80c-4.4,0-8,3.6-8,8v96c0,4.4,3.6,8,8,8h80C252.4,352,256,348.4,256,344z"/>
	<path class="st0" d="M272,344V56c0-13.3-10.7-24-24-24H56c-13.3,0-24,10.7-24,24v288c0,24,12,24,16,24h200
		C261.3,368,272,357.3,272,344z M256,216c0,4.4-3.6,8-8,8h-80c-4.4,0-8-3.6-8-8v-80c0-4.4,3.6-8,8-8h80c4.4,0,8,3.6,8,8V216z M48,64
		c0-8.8,7.2-16,16-16h176c8.8,0,16,7.2,16,16v32c0,8.8-7.2,16-16,16H64c-8.8,0-16-7.2-16-16V64z M144,344c0,4.4-3.6,8-8,8H56
		c-4.4,0-8-3.6-8-8v-96c0-4.4,3.6-8,8-8h80c4.4,0,8,3.6,8,8V344z M144,216c0,4.4-3.6,8-8,8H56c-4.4,0-8-3.6-8-8v-80c0-4.4,3.6-8,8-8
		h80c4.4,0,8,3.6,8,8V216z M160,344v-96c0-4.4,3.6-8,8-8h80c4.4,0,8,3.6,8,8v96c0,4.4-3.6,8-8,8h-80C163.6,352,160,348.4,160,344z"
		/>
	<path class="st0" d="M304,336V208.2c-5.4,0.3-10.7,1-16,2V344c0,22.1-17.9,40-40,40h-65.9c22.1,71.8,98.1,112.1,169.9,90
		c57.1-17.5,96-70.3,96-130H312C307.6,344,304,340.4,304,336z M433.7,360.4c-11.3,44.3-50.5,104.8-118.8,104.8
		c-75.8,0-109-64.8-109-64.8s-0.6-1.1-0.9-1.7c44.8,1,62.4-1.4,62.4-1.4s21.7-4.1,38-37.6C355.9,363,416.3,360.4,433.7,360.4z"/>
</g>
<g>
	<path class="st0" d="M352,176.2V296h127.1C471.4,230.5,417.8,180.1,352,176.2z M369,192.5c76.8,24.8,90.7,88.2,90.7,88.2H369
		C369,280.7,369,197.3,369,192.5z"/>
</g>
</svg>
