<svg xmlns="http://www.w3.org/2000/svg" viewBox="0 0 512 511.99"><defs><style>.a{fill:#3f12c8;}</style></defs><title>higher education_1</title><path class="a" d="M56.32,382.29a8.54,8.54,0,1,0-10.24-13.66,29.87,29.87,0,0,0,0,47.79,8.54,8.54,0,0,0,10.37-13.57,12.8,12.8,0,0,1-.13-20.56Z"/><path class="a" d="M460.8,332.79H443.92V322.31a34.31,34.31,0,0,0-31.76-33.85l-87.89-6.28V237.81c.22-.22.4-.44.63-.67a58.44,58.44,0,0,0,19.48-47.78,49.54,49.54,0,0,0,21.43-30c2.31-15.22,2.56-34.3-9.28-38.56a18.76,18.76,0,0,0-6.83-1.31c.08-2.64.14-5.43.18-8.42V71.55L366.93,67V87.69a26.13,26.13,0,0,0,11.67,21.8,8.53,8.53,0,0,0,9.47-14.2,9.1,9.1,0,0,1-4.07-7.6V61.63a17.07,17.07,0,0,0-4.09-31.26L268.93.57a17.19,17.19,0,0,0-8.78,0l-111,29.8a17.17,17.17,0,0,0,0,33.11l30,8.07V111c0,3,.09,5.82.18,8.4a17.67,17.67,0,0,0-6.58,1.24c-12.07,4.36-11.85,23.43-9.49,39a49.51,49.51,0,0,0,21.33,29.73,58.47,58.47,0,0,0,19.47,47.79c.24.23.42.46.65.69v44.37L117,288.42a34.27,34.27,0,0,0-31.7,34.07v10.3H51.2C23,332.79,0,359.59,0,392.53s23,59.73,51.2,59.73H213.33v42.67A17.06,17.06,0,0,0,230.4,512h34.13a17.06,17.06,0,0,0,17.07-17.06V452.26H460.8c28.24,0,51.2-26.79,51.2-59.73s-23-59.74-51.2-59.74Zm-34-10.4v10.4H285.16L319,298.92l91.94,6.57a17.14,17.14,0,0,1,15.91,16.9ZM307.2,392.53c0,23.52-15.31,42.66-34.13,42.66H257.63a66.68,66.68,0,0,0,0-85.33h15.44C291.89,349.86,307.2,369,307.2,392.53ZM253.7,281.59h21.67c17.24,0,24.89-10.55,31.83-21.33v26.33l-42.57,42.66-42.76-42.66V260.26C228.8,271,236.46,281.59,253.7,281.59ZM256,392.53c0,23.52-15.31,42.66-34.13,42.66H87a66.66,66.66,0,0,0,0-85.33H221.87C240.69,349.86,256,369,256,392.53Zm8.48-375.47L375.59,46.93h-.11L264.58,76.79l-111-29.93Zm-4.34,76.22a17.13,17.13,0,0,0,4.39.58,16.62,16.62,0,0,0,4.38-.58L332.8,76.13v30.42c-6.59,4-26.12,12.91-68.18,12.91s-61.81-9-68.35-12.91V76.13Zm-58.33,93.59a8.86,8.86,0,0,0-4-9.57c-.16-.09-.32-.19-.49-.27a33.22,33.22,0,0,1-17.18-20.24,62.89,62.89,0,0,1-.19-20.26,11.94,11.94,0,0,1,4.47,1.64,8.53,8.53,0,0,0,12.67-8.24c-.12-1.29-.23-2.64-.33-4.09a177.52,177.52,0,0,0,67.87,10.69,176.75,176.75,0,0,0,67.72-10.67c-.09,1.43-.18,2.8-.28,4.11a8.53,8.53,0,0,0,12.59,8.16,11.59,11.59,0,0,1,4.48-1.6,61.86,61.86,0,0,1-.14,19.91A33.28,33.28,0,0,1,331.73,177c-.23.12-.45.25-.67.39l-.21.13a8.47,8.47,0,0,0-3.56,10.21A42.32,42.32,0,0,1,313,224.88,126.93,126.93,0,0,0,294,249.3c-7.27,11.31-10.19,15.23-18.62,15.23H253.7c-8.43,0-11.37-3.92-18.62-15.25A127.09,127.09,0,0,0,216,224.85a42.76,42.76,0,0,1-14.2-38ZM102.4,322.49a17.13,17.13,0,0,1,15.85-17l91.81-6.56,34,33.86H102.4Zm-85.33,70c0-23.53,15.31-42.67,34.13-42.67S85.33,369,85.33,392.53,70,435.19,51.2,435.19,17.07,416.05,17.07,392.53ZM230.4,494.93V452.26h34.13v42.67Zm230.4-59.74h-152a66.68,66.68,0,0,0,0-85.33h152c18.82,0,34.13,19.14,34.13,42.67S479.62,435.19,460.8,435.19Z"/></svg>