<?xml version="1.0" encoding="utf-8"?>
<!-- Generator: Adobe Illustrator 22.0.1, SVG Export Plug-In . SVG Version: 6.00 Build 0)  -->
<svg version="1.1" id="Layer_1" xmlns="http://www.w3.org/2000/svg" xmlns:xlink="http://www.w3.org/1999/xlink" x="0px" y="0px"
	 viewBox="0 0 512 512" style="enable-background:new 0 0 512 512;" xml:space="preserve">
<style type="text/css">
	.st0{fill:#3F12C8;}
</style>
<g>
	<path class="st0" d="M272.8,279.8c21.5,6.2,45.2-7.6,59.6-22.8C310,255.5,280.3,251.9,272.8,279.8z M149.3,482.6h22.8
		c-16.9-14.3-27.7-35.6-27.7-59.4v-68.5c-15.1,0-27.5-9.9-27.5-25.6c0-14.1,11.5-25.6,25.6-25.6H248v-23
		c-14.3,3.4-28.5,0.5-41.3-5.9c-22.5-11.2-33.6-26.3-44.9-45.9c-4.3-7.5-6-7.4,2.2-5.9c9.2,1.7,16,2.7,26.9,2.7
		c19.5,0,43.2,0,57,15.3v-22.7c-13.7-1.3-27.3-5.3-40.1-12.2c-33.8-18.3-53.6-52.5-55-88.4C150.7,59.6,196,10.6,254,8.4
		s106.8,43,109.1,101c0.1,4.1-4.6,8.4-8.9,8.6s-9.3-3.8-9.5-7.9c-1.8-47.9-42.2-85.2-90-83.4c-49.5,1.9-83.4,41.6-83.4,90
		c0,29.7,19.6,59,45.4,73c42.1,22.8,94.8,7.2,117.6-35c2-3.6,8.2-4.9,12-2.9s6.1,8,4.2,11.6c-17.3,32-48.8,51.3-82.5,54.6v38.6
		c14.5-17.5,39.9-15.8,60.6-14.5c10.1,0.7,16.7,0.3,24.9-0.6c9.3-1,9.6-2.8,4.3,5.2c-12.7,19-24.7,33.6-48.2,43.3
		c-13.2,5.5-27.6,7.5-41.7,3.1v10.1h105.5c14.1,0,25.6,11.5,25.6,25.6c0,15.7-12.4,25.6-27.5,25.6v68.5c0,23.8-10.8,45.1-27.7,59.4
		h12.8c5,0,9.2,4.1,9.2,9.2c0,5-4.1,9.2-9.2,9.2c-69.1,0-138.3,0-207.4,0c-5,0-9.2-4.1-9.2-9.2C140.1,486.8,144.3,482.6,149.3,482.6
		L149.3,482.6z M297.3,336.4c5,0,9.1,4.1,9.1,9.1s-4.1,9.1-9.1,9.1H162.8v68.6c0,32.6,26.8,59.4,59.4,59.4h71.6
		c32.6,0,59.4-26.8,59.4-59.4v-86.9h20.3c4,0,7.2-3.3,7.2-7.2c0-4-3.3-7.2-7.2-7.2h-231c-4,0-7.2,3.3-7.2,7.2c0,4,3.3,7.2,7.2,7.2
		C194.1,336.4,245.7,336.4,297.3,336.4z M258,40.2c40.4,0,73.2,32.8,73.2,73.2s-32.8,73.2-73.2,73.2s-73.2-32.8-73.2-73.2
		S217.6,40.2,258,40.2z M258,58.6c-30.3,0-54.9,24.6-54.9,54.9s24.6,54.9,54.9,54.9s54.9-24.6,54.9-54.9S288.3,58.6,258,58.6z
		 M343.4,133.1c1.1-4.6,5.6-7.4,10.2-6.4c4.6,1.1,7.4,5.6,6.4,10.2s-5.6,7.4-10.2,6.4C345.2,142.2,342.3,137.6,343.4,133.1z
		 M325.1,336.4c5,0,9.1,4.1,9.1,9.1s-4.1,9.1-9.1,9.1s-9.1-4.1-9.1-9.1C316,340.4,320.1,336.4,325.1,336.4z M244.2,266.6
		c-5.7-28.3-35.5-26.6-58-26.7C199.6,256,222.3,271.4,244.2,266.6z"/>
	<path class="st0" d="M382.5,482.7c5,0,9.1,4.1,9.1,9.1s-4.1,9.1-9.1,9.1s-9.1-4.1-9.1-9.1S377.5,482.7,382.5,482.7z"/>
</g>
<g transform="translate(0,-952.36218)">
	<path class="st0" d="M234.2,1033.6l-5.2,7.2h14.6c1.5,0.1,12,0.8,15.8,7.9h-25.3l-5.2,7.2h31.8c0,0.1,0,0.3,0,0.4
		c0,0-0.1,15.7-28.8,13v3.4v3.7l30.9,33.6h11.8v-1.5l-29.6-33.4v-0.5c0,0,23.3,0.3,27.2-18.7c0,0,0,0,0-0.1h9.8l5.2-7.2h-15.4
		c-0.6-2.6-1.8-5.5-4.1-7.9H282l5.2-7.2L234.2,1033.6L234.2,1033.6z"/>
</g>
</svg>
