<svg xmlns="http://www.w3.org/2000/svg" viewBox="0 0 24.37 28.68"><defs><style>.a{fill:#454546;}</style></defs><title>Lock</title><path class="a" d="M3.58,16.49a1.43,1.43,0,0,1-1.43-1.43V9.7a9.88,9.88,0,0,1,10-9.7,9.88,9.88,0,0,1,10,9.7v2.49a1.43,1.43,0,0,1-2.86,0V9.7a7,7,0,0,0-7.17-6.83A7,7,0,0,0,5,9.7v5.36A1.44,1.44,0,0,1,3.58,16.49Z"/><path class="a" d="M20.79,11.47H3.58A3.6,3.6,0,0,0,0,15.06v10a3.6,3.6,0,0,0,3.58,3.59H20.79a3.6,3.6,0,0,0,3.58-3.59v-10A3.6,3.6,0,0,0,20.79,11.47ZM12.9,21.41v2.25a.72.72,0,0,1-1.43,0V21.41a2.87,2.87,0,1,1,1.43,0Z"/></svg>