<?xml version="1.0" encoding="utf-8"?>
<!-- Generator: Adobe Illustrator 22.0.0, SVG Export Plug-In . SVG Version: 6.00 Build 0)  -->
<svg version="1.1" id="Layer_1" xmlns="http://www.w3.org/2000/svg" xmlns:xlink="http://www.w3.org/1999/xlink" x="0px" y="0px"
	 viewBox="0 0 1176.1 266.2" style="enable-background:new 0 0 1176.1 266.2;" xml:space="preserve">
<style type="text/css">
	.st0{fill:#FFFFFF;}
</style>
<title>Artboard 1</title>
<g id="JKfQ7U">
	<path class="st0" d="M1166.6,253.3c-23.1,10.2-47.3,13.2-72.5,11.5c2.3-1,4.4-1.7,6.3-2.7c2-1.1,3.9-2.2,5.7-3.6
		c14.2-9.4,22.4-29.6,16.7-47.4c-0.6-1.9-1.2-3.8-1.8-5.7h0.2v-0.1c10.8,2.6,21.2,0.4,31.7-2.1c4.7-1.1,9.2-2.5,13.8-3.9
		L1166.6,253.3z"/>
	<path class="st0" d="M821.7,185.9c0,24.5,0,49,0,73.4c0,1.5-0.3,1.9-1.9,1.9c-16.2-0.1-32.5-0.1-48.7,0c-1,0.1-1.9-0.5-2.2-1.4
		c-4.3-8.6-8.7-17.1-12.9-25.7c-1-2-1.9-2-3.3-0.4c-9.8,11.6-20.9,21.8-35.9,26.5c-13.3,4.2-27,5.1-40.8,4.4
		c-8.9-0.3-17.6-2.4-25.7-6.2c-18.6-8.9-28.8-24.1-32.5-43.7c-2.7-13.7-2.8-27.4,1.2-40.9c5.3-18.3,18.1-29.8,35.3-37.1
		c14.9-6.4,30.7-9.3,46.9-10.5c14.6-1.2,29.3-1.1,43.9-1.7c1.4-0.1,1.7-0.5,1.7-1.8c0.1-4-0.4-8.1-1.4-12c-3-10.2-11-15.7-23.4-16
		c-14.5-0.3-28.3,3.3-41.8,8c-6.4,2.2-12.7,4.9-19,7.3c-1.1,0.5-1.6,0.5-2.2-0.8c-6.7-15.4-13.5-30.9-20.5-46.3
		c-0.6-1.3-0.1-1.7,0.9-2.1c17.7-8.5,36.5-13.4,56-15.9c16.3-2.2,32.7-2.9,49.1-2.1c13.9,0.9,27.5,3.7,39.9,10.4
		c21.3,11.4,32.9,29.4,36.3,52.9c0.7,5.9,1.1,11.8,1,17.7C821.7,144.5,821.7,165.2,821.7,185.9z M735.3,165.7
		c-6.5,0-13.1,0.7-19.6,1.9c-16.2,3.4-23.8,12.8-22.9,28.2c0.5,8.5,5.3,14.3,13.6,16.1c3.1,0.7,6.1,0.9,9.3,0.8
		c14.2-0.5,26.8-9.6,30.1-22.2c2.2-8,0.9-16.3,1.2-24.5c0-1.1-0.8-0.8-1.4-0.8C742.2,165.3,738.7,165.5,735.3,165.7z"/>
	<path class="st0" d="M383.8,185.9c0,24.5,0,49,0,73.4c0,1.5-0.3,1.9-1.9,1.9c-16.2-0.1-32.5-0.1-48.7,0c-1,0.1-1.9-0.5-2.2-1.4
		c-4.2-8.6-8.6-17.1-12.9-25.7c-1-2-2-1.9-3.3-0.3c-9.8,11.6-20.9,21.8-35.9,26.5c-13.3,4.2-27,5.1-40.8,4.4
		c-8.9-0.3-17.7-2.4-25.7-6.2c-18.6-8.9-28.8-24.1-32.5-43.7c-2.7-13.7-2.8-27.3,1.1-40.8c5.3-18.4,18.1-29.9,35.3-37.3
		c14.9-6.4,30.7-9.3,46.9-10.5c14.6-1.2,29.3-1.1,43.9-1.7c1.4-0.1,1.7-0.5,1.7-1.8c0.1-4-0.4-8.1-1.4-12c-3-10.2-11-15.7-23.4-16
		c-14.5-0.3-28.3,3.4-41.8,8c-6.3,2.1-12.7,4.6-18.8,7.3c-1.3,0.6-1.8,0.5-2.4-0.9c-6.7-15.3-13.5-30.7-20.4-45.9
		c-0.5-1.3-0.3-1.8,0.9-2.3c17.7-8.7,36.6-13.6,56-16.1c16.3-2.2,32.7-2.9,49.1-2.1c13.5,0.9,26.7,3.5,38.8,9.8
		c22,11.3,33.9,29.5,37.3,53.5c0.8,5.9,1.1,11.7,1,17.6C383.7,144.4,383.7,165.1,383.8,185.9z M297,165.7
		c-6.5,0.1-13.1,0.7-19.6,1.9c-16.2,3.4-23.8,12.8-22.9,28.2c0.5,8.5,5.3,14.3,13.5,16.1c3.1,0.7,6.1,0.9,9.3,0.8
		c14.3-0.5,27-9.7,30.2-22.4c2.1-8,0.8-16.2,1.1-24.3c0-1.1-0.8-0.8-1.4-0.8L297,165.7z"/>
	<path class="st0" d="M424.4,46.3c12.4,0,24.9,0,37.3,0c1.2,0,1.8,0.3,2.2,1.6c12,41.6,24.1,83.2,36.1,124.8
		c2.1,7,3.3,14.1,3.7,21.5c0,0.5-0.1,1.1,0.7,1.1c0.8,0,0.7-0.5,0.7-1c0.1-12.2,4.3-23.4,7.8-34.8C524,122.2,535.3,85.1,546.6,48
		c0.1-1.1,1.1-1.8,2.1-1.7h0.1c24.9,0.1,49.8,0.1,74.7,0c1.4,0,1.8,0.1,1.2,1.7c-27.3,70.5-54.5,141.2-81.8,211.7
		c-0.2,1-1.1,1.6-2.1,1.5c-23.7,0-47.4,0-71.2,0c-1,0.1-2-0.6-2.2-1.6c-27.2-70.4-54.3-140.9-81.6-211.3c-0.6-1.6-0.7-2,1.3-2
		C399.5,46.3,412,46.3,424.4,46.3z"/>
	<path class="st0" d="M0.3,223.3c0-9.4,0-18.7,0-28.2c0-1.3,0.1-1.6,1.5-1c19.1,8.1,39.3,13.5,60,16c9.4,1.1,18.9,1.6,28.2-0.5
		c1.6-0.4,3.1-0.9,4.5-1.6c6.4-3,7.7-9.6,2.9-14.7c-3.6-3.9-8.3-5.9-12.9-7.9c-13.2-5.7-26.6-11-39.8-16.8
		c-8.5-3.6-16.4-8.4-23.5-14.2C6.2,142.5,0.3,126.6,0,108.4c-0.6-30,15.2-50.6,45.9-60.1c18.9-5.8,38.3-6.6,57.8-5.3
		c22.4,1.5,43.5,8.3,64,17c1.2,0.5,1.6,1,1,2.3c-6.4,14.8-12.8,29.8-19.1,44.7c-0.6,1.4-1.1,1.4-2.4,0.9
		c-16-6.7-32.4-12.3-49.8-14.6c-6.6-0.9-13.3-1.1-19.9,1.1c-6.6,2.2-8.1,8.7-3.3,13.8c2.5,2.5,5.7,4,8.9,5.5
		c14.4,6.7,29.7,11.6,44,18.4c7.5,3.3,14.6,7.5,21.3,12.3c11.6,8.5,19.2,21.2,21.3,35.3c2.3,14.6,1.9,29.1-3.6,43.1
		c-7.2,18.4-21.7,29-39.9,35.3c-16.8,5.9-34.3,7-52,6.8c-24.7-0.2-48.9-2.6-72.3-11.3c-1.2-0.2-2-1.4-1.8-2.5
		C0.3,241.9,0.3,232.6,0.3,223.3z"/>
	<path class="st0" d="M849.3,153.7c0-35.1,0-70.3,0-105.4c0-1.6,0.3-2,2-2c17.5,0.1,34.8,0.1,52.3,0c1-0.2,2,0.5,2.2,1.6
		c3.5,10.4,7,20.8,10.7,31.1c0.2,0.8,0.2,1.9,1.5,1.8c1.3-0.1,2.5,0.4,3.5-1.3C932.7,60.6,949,48.1,971,43.6
		c10.6-2.1,21.1-0.7,31.6,1.2c0.9,0.2,0.8,0.7,0.8,1.4c-2.2,22.4-4.2,44.9-6.4,67.2c-0.1,1.4-0.6,1.5-1.9,1.3c-14-2.3-28-3.2-42,0
		c-16.2,3.8-26,15-28,31.3c-0.5,3.8-0.7,7.6-0.7,11.4c0,33.9,0,67.9,0,101.8c0,1.6-0.3,2-2,2c-23.7-0.1-47.4-0.1-71.2,0
		c-1.6,0-2-0.3-2-2C849.4,224,849.4,188.9,849.3,153.7z"/>
	<path class="st0" d="M1109.6,189.8c-13.4-10.5-28-13.8-43.9-8.5c-15.9,5.3-25.8,16.6-29.5,33.7c-0.4-3.1-0.8-5.8-1.1-8.3
		c-0.3-2.5-0.5-5.5-0.7-8.2c-0.2-2.7-0.2-5.4-0.2-8c0-28.8,0-57.6,0-86.4c0-1.7-0.4-2.1-2.1-2.1c-7.5,0.1-14.9,0-22.3,0.1
		c-1.4,0-1.9-0.3-1.9-1.8c0.1-9,0.1-18,0-26.9c-0.1-1,0.5-2,1.4-2.4c10.2-7.1,20.5-14.4,30.6-21.5c0.9-0.6,1.6-1.5,2-2.4
		c6-14.1,12-28.1,18-42.2c0.3-1,1.3-1.6,2.3-1.5c15.1,0,30.4,0,45.6,0c1.5,0,1.8,0.5,1.8,1.9c-0.1,13.2,0,26.5-0.1,39.6
		c0,1.4,0.3,1.7,1.7,1.7c16.5,0,33,0,49.6-0.1c1.5,0,2.1,0.3,2,2c-0.1,17.4-0.1,34.8,0,52.1c0,1.5-0.4,1.8-1.8,1.8
		c-16.5-0.1-33.1,0-49.8-0.1c-1.3,0-1.8,0.3-1.8,1.7c0,27.3,0,54.7,0,82C1109.4,186.9,1109.5,188.2,1109.6,189.8z"/>
	<path class="st0" d="M1110.8,215.1c2.6,9.3,0.8,17.8-4.7,25.5c-8,11.4-24.6,16.3-36.6,10.9c0.3-0.5,0.7-0.9,1.1-1.3
		c6.8-6.2,13.5-12.6,20.5-18.7c4.6-4.2,9.3-8.2,13.9-12.4C1106.6,217.5,1109.2,217.1,1110.8,215.1z"/>
	<path class="st0" d="M1092.3,194.3c3.8,1.3,7.2,3.5,10,6.3c-2.9,1.5-4.8,3.9-7.2,6c-8.4,7.3-16.8,14.6-25.3,22
		c-4.8,4.2-9.8,8.3-14.6,12.5c-2.5-2.9-4.2-6.5-5.1-10.3c0.3-0.1,0.7-0.2,0.9-0.4c4.7-4.1,9.4-8.1,14.1-12.2
		c5.8-5,11.7-9.9,17.4-14.9C1085.8,200.3,1089.4,197.7,1092.3,194.3z"/>
	<path class="st0" d="M1055,241.1c4.9-4.2,9.8-8.3,14.6-12.5c8.4-7.3,16.9-14.6,25.3-22c2.4-2.1,4.4-4.4,7.2-6
		c2.3,2.1,4.2,4.4,5.5,7.1c-0.6-0.1-1.3,0.1-1.8,0.5c-5.1,4.6-10.4,9.1-15.5,13.7c-5.1,4.5-10.4,8.9-15.5,13.4c-4.5,4-9,8-13.5,12
		C1058.9,245.8,1056.7,243.6,1055,241.1z"/>
	<path class="st0" d="M1092.3,194.3c-3,3.4-6.6,6-9.9,8.9c-5.7,5.1-11.6,10-17.4,14.9c-4.7,4.1-9.4,8.1-14.1,12.2
		c-0.3,0.2-0.6,0.3-0.9,0.4c-1.2-3.6-1.6-7.5-0.9-11.3c1.4-1.1,2.8-2.1,4.2-3.2c6.1-5.2,12.2-10.4,18.2-15.7
		c3.2-2.8,6.3-5.7,9.5-8.6C1084.8,191.9,1088.7,192.6,1092.3,194.3z"/>
	<path class="st0" d="M1061.4,247.4c4.5-4,9-8.1,13.5-12c5.1-4.5,10.4-8.9,15.5-13.4s10.4-9.1,15.5-13.7c0.5-0.4,1.1-0.6,1.8-0.5
		c1.5,2.1,2.5,4.7,3,7.3c-1.6,1.9-4.2,2.4-5.9,4c-4.6,4.2-9.3,8.2-13.9,12.4c-6.8,6.2-13.6,12.5-20.5,18.7c-0.4,0.4-0.8,0.9-1.1,1.3
		C1066.5,250.7,1063.8,249.4,1061.4,247.4z"/>
	<path class="st0" d="M1080.8,192c-3.2,2.8-6.2,5.8-9.5,8.6c-6,5.3-12.2,10.4-18.2,15.7c-1.3,1.2-2.8,2.1-4.2,3.2
		c0-9.7,8.5-21,19.2-25.3C1072.2,192.6,1076.6,191.8,1080.8,192z"/>
	<path class="st0" d="M1121,205.5l-0.1-0.2L1121,205.5L1121,205.5L1121,205.5z"/>
</g>
</svg>
