<?xml version="1.0" encoding="utf-8"?>
<!-- Generator: Adobe Illustrator 22.0.1, SVG Export Plug-In . SVG Version: 6.00 Build 0)  -->
<svg version="1.1" id="Capa_1" xmlns="http://www.w3.org/2000/svg" xmlns:xlink="http://www.w3.org/1999/xlink" x="0px" y="0px"
	 viewBox="0 0 494.3 494.3" style="enable-background:new 0 0 494.3 494.3;" xml:space="preserve">
<style type="text/css">
	.st0{fill:none;}
	.st1{fill:#3F12C8;}
	.st2{fill:#DAFF00;}
</style>
<g>
	<rect x="236.7" y="241.5" class="st0" width="23.3" height="197.5"/>
	<polygon class="st0" points="428.1,107.8 428.1,276.1 451.4,283.1 451.4,107.8 	"/>
	<rect x="42.9" y="375.3" class="st0" width="23.3" height="63.8"/>
	<rect x="139.8" y="269.8" class="st0" width="23.3" height="169.3"/>
	<polygon class="st0" points="332.4,171.6 332.4,313 336.7,308.6 355.7,298.1 355.7,171.6 	"/>
	<path class="st1" d="M289.5,381.1l1-3.4C290.2,378.8,289.8,380,289.5,381.1z"/>
	<path class="st1" d="M286.7,395c0.4-2.7,0.8-5.1,1.2-7C287.5,390.4,287.1,392.7,286.7,395z"/>
	<path class="st1" d="M175.4,245.2h-47.9c-6.7,0-12.3,5.5-12.3,12.3v192.6c0,6.7,5.5,12.3,12.3,12.3h47.9c6.7,0,12.3-5.5,12.3-12.3
		V257.5C187.6,250.7,182.1,245.2,175.4,245.2z M163.1,439.1h-23.3V269.8h23.3V439.1z"/>
	<path class="st1" d="M272.3,217h-47.9c-6.7,0-12.3,5.5-12.3,12.3v222.1c0,6.7,5.5,12.3,12.3,12.3h47.9c6.7,0,12.3-5.5,12.3-12.3
		V229.3C284.6,222.5,279.1,217,272.3,217z M260,439.1h-23.3V241.5H260V439.1z"/>
	<path class="st1" d="M78.4,350.7H30.6c-6.7,0-12.3,5.5-12.3,12.3v87.1c0,6.7,5.5,12.3,12.3,12.3h47.9c6.7,0,12.3-5.5,12.3-12.3V363
		C90.7,356.3,85.2,350.7,78.4,350.7z M66.2,439.1H42.9v-63.8h23.3V439.1z"/>
	<path class="st2" d="M289.3,382c0,0-0.6,2.2-1.4,6.1c0.5-2.3,1-4.6,1.6-6.9L289.3,382z"/>
	<path class="st1" d="M367.8,147.1h-47.5c-6.7,0-12.4,4.8-12.4,11.7v167.4v12.1V452c0,6.7,5.8,11.7,12.5,11.7h47.5
		c6.7,0,12.4-4.8,12.4-11.7V284.6v-12.1V158.7C380.3,152,374.5,147.1,367.8,147.1z M355.7,439.1h-23.3V313v-0.5V171.6h23.3v126.1
		v0.5V439.1z"/>
	<path class="st1" d="M463.7,83.3h-47.5c-6.7,0-12.6,4.7-12.6,11.4V265v6.8v54.3v6.4V452c0,6.7,5.8,11.7,12.5,11.7h47.5
		c6.7,0,12.4-4.8,12.4-11.7V324.2v-33.7v-17.9v-15.8V94.7C476,87.9,470.5,83.3,463.7,83.3z M451.4,283.1v14.6v26.5v114.9h-23.3
		V332.5v-19.9v-36.5V265V107.8h23.3v148.9V283.1z"/>
</g>
</svg>
