<?xml version="1.0" encoding="utf-8"?>
<!-- Generator: Adobe Illustrator 22.0.1, SVG Export Plug-In . SVG Version: 6.00 Build 0)  -->
<svg version="1.1" id="Layer_1" xmlns="http://www.w3.org/2000/svg" xmlns:xlink="http://www.w3.org/1999/xlink" x="0px" y="0px"
	 viewBox="0 0 512 512" style="enable-background:new 0 0 512 512;" xml:space="preserve">
<style type="text/css">
	.st0{fill:none;stroke:#1111a5;stroke-width:19;stroke-miterlimit:10;}
	.st1{fill:none;stroke:#1111a5;stroke-width:12;stroke-miterlimit:10;}
</style>
<path class="st0" d="M254.2,128.3c0,0-144.2,101.5-170.6,120.8C45.1,281.6,7.5,233.9,39,203.5c2-4.1,198-137.1,198-137.1
	s18.3-15.2,33.5-5.1c15.2,10.2,197,149.2,201,149.2c22.3,30.5-10.2,60.9-39.6,47.7C417.7,243.1,254.2,128.3,254.2,128.3z"/>
<path class="st0" d="M440.7,494.3H59.6c-6.3,0-11.5-5.2-11.5-11.5v-15.1c0-6.3,5.2-11.5,11.5-11.5h381.1c6.3,0,11.5,5.2,11.5,11.5
	v15.1C452.2,489.1,447,494.3,440.7,494.3z"/>
<line class="st0" x1="83.7" y1="249.1" x2="83.7" y2="453.2"/>
<line class="st0" x1="422.7" y1="250.3" x2="422.7" y2="457.2"/>
<circle class="st1" cx="255.3" cy="226.8" r="42.1"/>
<polyline class="st0" points="351.7,122.1 351.7,116.2 351.7,47.1 328.3,47.1 328.3,17.7 433.9,17.7 433.9,47.1 409.6,47.1 
	409.6,165.5 "/>
<polyline class="st1" points="212.6,457.2 212.6,294.8 292.8,294.8 292.8,453.2 "/>
</svg>
