<?xml version="1.0" encoding="utf-8"?>
<!-- Generator: Adobe Illustrator 22.0.1, SVG Export Plug-In . SVG Version: 6.00 Build 0)  -->
<svg version="1.1" id="Layer_1" xmlns="http://www.w3.org/2000/svg" xmlns:xlink="http://www.w3.org/1999/xlink" x="0px" y="0px"
	 viewBox="0 0 464.6 484.3" style="enable-background:new 0 0 464.6 484.3;" xml:space="preserve">
<style type="text/css">
	.st0{fill:#3F12C8;}
</style>
<title>Review Existing-line</title>
<path class="st0" d="M188,70.8h76.1c7,0,12.8,5.7,12.8,12.8c0,7-5.7,12.7-12.8,12.8H188c-7,0-12.8-5.7-12.8-12.8S181,70.8,188,70.8z
	 M188,121.8h76.1c7,0,12.8,5.7,12.8,12.8c0,7-5.7,12.7-12.8,12.8H188c-7,0-12.8-5.7-12.8-12.8C175.2,127.5,181,121.8,188,121.8z
	 M145.1,301.3H69c-7,0-12.8-5.7-12.7-12.8c0-7,5.7-12.7,12.7-12.7h76.1c7,0,12.8,5.7,12.7,12.8C157.9,295.6,152.2,301.3,145.1,301.3
	L145.1,301.3z M145.1,249.4H69c-7-0.2-12.6-6.1-12.4-13.1c0.2-6.8,5.6-12.2,12.4-12.4h76.1c7,0.2,12.6,6.1,12.4,13.1
	C157.3,243.8,151.9,249.2,145.1,249.4L145.1,249.4z M145.1,198.4H69c-7-0.2-12.6-6.1-12.4-13.1c0.2-6.8,5.6-12.2,12.4-12.4h76.1
	c7,0.2,12.6,6.1,12.4,13.1C157.3,192.8,151.9,198.2,145.1,198.4L145.1,198.4z M145.1,147.4H69c-7,0-12.8-5.7-12.8-12.8
	c0-7,5.7-12.8,12.8-12.8h76.1c7,0,12.8,5.7,12.8,12.8C157.9,141.7,152.2,147.4,145.1,147.4L145.1,147.4z M145.1,96.4H69
	c-7,0-12.8-5.7-12.8-12.8S62,70.9,69,70.9h76.1c7,0,12.8,5.7,12.8,12.8S152.2,96.4,145.1,96.4L145.1,96.4z M175.2,185.7
	c0-7,5.6-12.8,12.7-12.8c0,0,0.1,0,0.1,0h36.7c7-0.2,12.9,5.4,13.1,12.4s-5.4,12.9-12.4,13.1c-0.2,0-0.5,0-0.7,0H188
	C181,198.4,175.2,192.7,175.2,185.7C175.2,185.7,175.2,185.7,175.2,185.7L175.2,185.7z"/>
<path class="st0" d="M430.5,281.5c-21.8-22.3-51.6-35.1-82.8-35.6h-0.2h-1.9c-65.7,0-119.1,53.5-119.1,119.2
	c0,65.8,53.3,119.2,119.1,119.2c65.7,0,119.1-53.5,119.1-119.2C464.7,333.8,452.4,303.8,430.5,281.5z M345.5,461
	c-53,0-95.9-42.9-95.9-95.9s42.9-95.9,95.9-95.9c53,0,95.9,42.9,95.9,95.9c0,0,0,0,0,0C441.4,418.1,398.5,461,345.5,461
	C345.5,461,345.5,461,345.5,461z"/>
<path class="st0" d="M394.2,325.5c-6.2-5-15.2-4-20.2,2.2c0,0,0,0,0,0l-37,46.1l-22.9-16.6c-6.4-4.6-15.4-3.2-20,3.2
	s-3.2,15.4,3.2,20l33.9,24.6c6.2,4.5,14.8,3.3,19.6-2.6l45.5-56.7C401.3,339.5,400.4,330.5,394.2,325.5z"/>
<path class="st0" d="M308.4,0H57.8C25.9,0,0,25.9,0,57.8V390c0,31.9,25.9,57.7,57.8,57.8h167.3c-14.5-23.2-22.1-50.1-22-77.4
	c0-81,65.9-146.9,146.9-146.9h2.4h0.2c4.6,0.1,9.1,0.4,13.6,0.9V57.8C366.2,25.9,340.3,0,308.4,0z M339,201
	c-183.5,28.7-163.8,193.5-152,222.7H60.3C21.8,421,21.8,383,21.8,383s0.1-272.7,2.3-318.3c1.6-32.8,36.7-36.9,36.7-36.9
	s208-2.2,240.8-2.3c35,3,35,40.5,35,40.5"/>
</svg>
