<?xml version="1.0" encoding="utf-8"?>
<!-- Generator: Adobe Illustrator 22.0.1, SVG Export Plug-In . SVG Version: 6.00 Build 0)  -->
<svg version="1.1" xmlns="http://www.w3.org/2000/svg" xmlns:xlink="http://www.w3.org/1999/xlink" x="0px" y="0px"
	 viewBox="0 0 504.5 127.7" style="enable-background:new 0 0 504.5 127.7;" xml:space="preserve">
<style type="text/css">
	.st0{fill:#FFFFFF;}
	.st1{fill:#F9D746;}
</style>
<g id="Layer_7">
	<path class="st0" d="M362.6,70.3V25.9c0-0.7,0.1-0.8,0.8-0.8c7.3,0,14.5,0,21.8,0c0.4-0.1,0.8,0.2,0.9,0.7
		c1.4,4.4,2.9,8.8,4.4,13.1c0.1,0.3,0.1,0.8,0.6,0.7c0.5,0,1,0.1,1.4-0.5c4.7-8,11.5-13.2,20.7-15.1c4.4-0.9,8.8-0.3,13.2,0.5
		c0.4,0.1,0.3,0.3,0.3,0.6c-0.9,9.5-1.8,18.9-2.7,28.3c0,0.6-0.2,0.6-0.8,0.5c-5.8-1-11.7-1.4-17.5,0c-6.7,1.6-10.9,6.3-11.7,13.2
		c-0.2,1.6-0.3,3.2-0.3,4.8v42.9c0,0.7-0.1,0.8-0.8,0.8c-9.9,0-19.7,0-29.6,0c-0.7,0-0.8-0.1-0.8-0.8
		C362.6,99.9,362.6,85.1,362.6,70.3z"/>
</g>
<g id="Layer_6">
	<path class="st0" d="M494.6,112.1c-9.5,4.3-19.4,5.5-29.8,4.9c0.9-0.4,1.8-0.7,2.6-1.2c0.8-0.5,1.6-0.9,2.3-1.5
		c5.8-3.9,9.2-12.5,6.9-19.9c-0.2-0.8-0.5-1.6-0.7-2.4h0.1v0c4.4,1.1,8.7,0.2,13-0.9c1.9-0.5,3.8-1.1,5.7-1.6L494.6,112.1z"/>
	<path class="st0" d="M471.2,85.5c-5.6-4.4-11.7-5.8-18.4-3.6s-10.8,7-12.3,14.1c-0.2-1.3-0.3-2.4-0.5-3.5c-0.1-1.1-0.2-2.3-0.3-3.5
		s-0.1-2.3-0.1-3.4V49.4c0-0.7-0.2-0.9-0.9-0.9c-3.1,0-6.2,0-9.3,0c-0.6,0-0.8-0.1-0.8-0.7c0-3.8,0-7.6,0-11.3c0-0.4,0.2-0.8,0.6-1
		c4.3-3,8.6-6,12.8-9c0.4-0.2,0.7-0.6,0.8-1c2.5-5.9,5-11.8,7.5-17.8c0.1-0.4,0.5-0.7,0.9-0.6c6.3,0,12.7,0,19.1,0
		c0.6,0,0.7,0.2,0.7,0.8c0,5.5,0,11.1,0,16.7c0,0.6,0.1,0.7,0.7,0.7c6.9,0,13.8,0,20.7,0c0.6,0,0.9,0.1,0.8,0.8c0,7.3,0,14.6,0,22
		c0,0.6-0.2,0.7-0.7,0.7c-6.9,0-13.9,0-20.8,0c-0.5,0-0.7,0.1-0.7,0.7c0,11.5,0,23,0,34.5C471.1,84.3,471.1,84.8,471.2,85.5z"/>
	<circle class="st1" cx="459.1" cy="100" r="13.5"/>
</g>
<g id="Layer_5">
	<path class="st0" d="M351.2,83.9v30.9c0,0.6-0.1,0.8-0.8,0.8c-6.7,0-13.5,0-20.3,0c-0.4,0-0.8-0.2-0.9-0.6
		c-1.8-3.6-3.6-7.2-5.4-10.8c-0.4-0.8-0.8-0.8-1.4-0.2c-4.1,4.9-8.7,9.2-14.9,11.1c-5.5,1.8-11.2,2.1-17,1.8
		c-3.7-0.1-7.4-1-10.7-2.6c-7.7-3.7-12-10.2-13.5-18.4c-1.1-5.8-1.2-11.6,0.5-17.2c2.2-7.7,7.5-12.5,14.7-15.6
		c6.2-2.7,12.8-3.9,19.5-4.4c6.1-0.5,12.2-0.5,18.3-0.7c0.6,0,0.7-0.2,0.7-0.7c0-1.7-0.2-3.4-0.6-5.1c-1.2-4.3-4.6-6.6-9.7-6.7
		c-6-0.1-11.8,1.4-17.4,3.4c-2.7,0.9-5.3,2.1-7.9,3.1c-0.5,0.2-0.7,0.2-0.9-0.3c-2.8-6.5-5.6-13-8.5-19.5c-0.2-0.5,0-0.7,0.4-0.9
		c7.4-3.7,15.2-5.7,23.3-6.8c6.8-0.9,13.6-1.2,20.4-0.9c5.8,0.4,11.4,1.6,16.6,4.4c8.9,4.8,13.7,12.4,15.1,22.3
		c0.3,2.5,0.5,5,0.4,7.4C351.2,66.4,351.2,75.1,351.2,83.9z M315.2,75.3c-2.7,0-5.5,0.3-8.1,0.8c-6.7,1.4-9.9,5.4-9.5,11.9
		c0.2,3.6,2.2,6,5.7,6.8c1.3,0.3,2.5,0.4,3.9,0.3c5.9-0.2,11.1-4,12.5-9.3c0.9-3.4,0.4-6.9,0.5-10.3c0-0.5-0.3-0.3-0.6-0.3
		C318.1,75.2,316.7,75.3,315.2,75.3L315.2,75.3z"/>
</g>
<g id="Layer_4">
	<path class="st0" d="M185.9,25.1h15.5c0.5,0,0.7,0.1,0.9,0.7c5,17.5,10,35,15,52.6c0.9,3,1.4,6,1.5,9c0,0.2,0,0.5,0.3,0.5
		s0.3-0.2,0.3-0.4c0-5.1,1.8-9.9,3.2-14.7c4.6-15.7,9.3-31.3,14-46.9c0-0.5,0.5-0.7,0.9-0.7l0,0h0c10.4,0,20.7,0,31.1,0
		c0.6,0,0.7,0,0.5,0.7c-11.3,29.7-22.7,59.5-34,89.2c-0.1,0.4-0.5,0.7-0.9,0.6c-9.9,0-19.7,0-29.6,0c-0.4,0-0.8-0.2-0.9-0.7
		c-11.3-29.7-22.6-59.4-34-89c-0.2-0.7-0.3-0.9,0.5-0.8C175.6,25.1,180.8,25.1,185.9,25.1z"/>
</g>
<g id="Layer_3">
	<path class="st0" d="M169,83.9v30.9c0,0.6-0.1,0.8-0.8,0.8c-6.7,0-13.5,0-20.3,0c-0.4,0-0.8-0.2-0.9-0.6c-1.8-3.6-3.6-7.2-5.4-10.8
		c-0.4-0.8-0.8-0.8-1.4-0.1c-4.1,4.9-8.7,9.2-14.9,11.1c-5.5,1.8-11.2,2.1-17,1.8c-3.7-0.1-7.4-1-10.7-2.6
		c-7.7-3.7-12-10.2-13.5-18.4C83,90.3,83,84.6,84.6,78.8c2.2-7.7,7.5-12.6,14.7-15.7c6.2-2.7,12.8-3.9,19.5-4.4
		c6.1-0.5,12.2-0.5,18.3-0.7c0.6,0,0.7-0.2,0.7-0.7c0-1.7-0.2-3.4-0.6-5.1c-1.2-4.3-4.6-6.6-9.7-6.7c-6-0.1-11.8,1.4-17.4,3.4
		c-2.6,0.9-5.3,1.9-7.8,3.1c-0.5,0.2-0.7,0.2-1-0.4c-2.8-6.5-5.6-12.9-8.5-19.3c-0.2-0.5-0.1-0.7,0.4-0.9c7.3-3.6,15.1-5.7,23.3-6.8
		c6.8-0.9,13.6-1.2,20.4-0.9c5.6,0.4,11.1,1.5,16.2,4.1c9.2,4.8,14.1,12.4,15.5,22.5c0.3,2.5,0.5,4.9,0.4,7.4
		C169,66.4,169,75.1,169,83.9z M133,75.3c-2.7,0-5.5,0.3-8.1,0.8c-6.7,1.4-9.9,5.4-9.5,11.9c0.2,3.6,2.2,6,5.7,6.8
		c1.3,0.3,2.5,0.4,3.9,0.3c6-0.2,11.2-4.1,12.6-9.4c0.9-3.4,0.3-6.8,0.5-10.2c0-0.5-0.3-0.3-0.6-0.3L133,75.3z"/>
</g>
<g id="Layer_2">
	<path class="st0" d="M9.7,99.6V87.7c0-0.5,0-0.7,0.6-0.4c7.9,3.4,16.4,5.7,24.9,6.7c3.9,0.5,7.9,0.7,11.7-0.2
		c0.7-0.2,1.3-0.4,1.9-0.7c2.7-1.3,3.2-4,1.2-6.2c-1.5-1.6-3.5-2.5-5.4-3.3c-5.5-2.4-11.1-4.6-16.6-7.1c-3.5-1.5-6.8-3.5-9.8-6
		c-6.1-5-8.6-11.7-8.8-19.4C9.4,38.6,16,29.9,28.7,25.9c7.9-2.4,15.9-2.8,24-2.2c9.3,0.6,18.1,3.5,26.6,7.2c0.5,0.2,0.7,0.4,0.4,1
		c-2.7,6.2-5.3,12.5-7.9,18.8c-0.2,0.6-0.5,0.6-1,0.4c-6.7-2.8-13.5-5.2-20.7-6.2c-2.8-0.4-5.5-0.5-8.3,0.5
		c-2.8,0.9-3.4,3.7-1.4,5.8c1,1.1,2.4,1.7,3.7,2.3c6,2.8,12.3,4.9,18.3,7.7c3.1,1.4,6.1,3.2,8.8,5.2c4.8,3.6,8,8.9,8.8,14.9
		c0.9,6.2,0.8,12.2-1.5,18.1c-3,7.7-9,12.2-16.6,14.9c-7,2.5-14.3,3-21.6,2.9c-10.3-0.1-20.4-1.1-30-4.8c-0.5-0.1-0.8-0.6-0.7-1.1
		C9.7,107.4,9.7,103.5,9.7,99.6z"/>
</g>
</svg>
