<svg xmlns="http://www.w3.org/2000/svg" viewBox="0 0 511.98 512"><defs><style>.a{fill:#3f12c8;}</style></defs><title>Save tax_1</title><path class="a" d="M325.88,158.05l-.44-.07a10,10,0,1,0-3.16,19.74l.35.06a10,10,0,0,0,3.25-19.73Z"/><path class="a" d="M501.8,284.62a29.91,29.91,0,0,0-42.24,0,10,10,0,0,0,14.15,14.14,9.89,9.89,0,0,1,14,0,14.86,14.86,0,0,1,0,21,21,21,0,0,1-29.75,0l0,0c.07-1.92.11-3.85.11-5.78a158.37,158.37,0,0,0-92.87-144,10,10,0,1,0-8.25,18.21,138.05,138.05,0,0,1,17.71,241.9,10,10,0,0,0-4.59,8.41V486a6,6,0,0,1-6,6H316a6,6,0,0,1-6-6V466.3a14.37,14.37,0,0,0-14.36-14.36H192.37A14.38,14.38,0,0,0,178,466.3V486a6,6,0,0,1-6,6H124a6,6,0,0,1-6-6V438.47a10,10,0,0,0-4.59-8.41A138,138,0,0,1,55,350.86a10,10,0,0,0-11-7.24,9.82,9.82,0,0,0-1.47.32H33a13,13,0,0,1-13-13V296.9a13,13,0,0,1,13-13h9.71A10.07,10.07,0,0,0,55,277,138.12,138.12,0,0,1,178,176.29a10,10,0,0,0-1.42-19.95,157.47,157.47,0,0,0-27.92,4.56,59.89,59.89,0,0,0-58.46-47.23h-3.8a10,10,0,0,0-10,10v78.45a157.46,157.46,0,0,0-38.33,61.82H33a33,33,0,0,0-33,33V331a33,33,0,0,0,33,33H38.1A157.84,157.84,0,0,0,98,443.81V486a26,26,0,0,0,26,26h48a26,26,0,0,0,26-26V471.94h92V486a26,26,0,0,0,26,26h48a26,26,0,0,0,26-26V443.81A157.32,157.32,0,0,0,455.49,342.1a41.11,41.11,0,0,0,46.31-8.22A34.87,34.87,0,0,0,501.8,284.62ZM96.42,134.15a39.88,39.88,0,0,1,33.09,33,158.55,158.55,0,0,0-33.09,18.05Z"/><path class="a" d="M120.29,249.06a10,10,0,1,0,2.93,7.07A10,10,0,0,0,120.29,249.06Z"/><path class="a" d="M304.28,213H190.72a10,10,0,0,0,0,20H304.28a10,10,0,0,0,0-20Z"/><path class="a" d="M247.5,86.59a53,53,0,1,0,53,53A53.07,53.07,0,0,0,247.5,86.59Zm0,86a33,33,0,1,1,33-33A33,33,0,0,1,247.5,172.59Z"/><path class="a" d="M247.48,0a10,10,0,0,0-10,10V53.14a10,10,0,0,0,20,0V10A10,10,0,0,0,247.48,0Z"/><path class="a" d="M337.69,38.68a10,10,0,0,0-14.15,0L297.21,65a10,10,0,1,0,14.14,14.15l26.34-26.34A10,10,0,0,0,337.69,38.68Z"/><path class="a" d="M197.79,65,171.46,38.63a10,10,0,1,0-14.15,14.14l26.34,26.34A10,10,0,0,0,197.79,65Z"/><path class="a" d="M173.77,307.73H139a10,10,0,0,0,0,20h7.39v53.95a10,10,0,0,0,20,0V327.73h7.4a10,10,0,0,0,0-20Z"/><path class="a" d="M268,377.84l-26.45-63.48a10,10,0,0,0-18.46,0l-26.45,63.48a10,10,0,1,0,18.46,7.69l1.53-3.67H248l1.53,3.67A10,10,0,1,0,268,377.84Zm-43-16,7.35-17.65,7.36,17.65Z"/><path class="a" d="M335.11,349.72l17.26-26.55a10,10,0,1,0-16.76-10.9l-12.43,19.1-12.42-19.1A10,10,0,1,0,294,323.17l17.26,26.55L294,376.27a10,10,0,0,0,16.77,10.9l12.42-19.11,12.43,19.11a10,10,0,1,0,16.76-10.9Z"/></svg>